<?xml version="1.0" encoding="UTF-8"?>
<svg id="Layer_1" data-name="Layer 1" xmlns="http://www.w3.org/2000/svg" viewBox="0 0 32 32">
  <defs>
    <linearGradient id="gradient" x1="0%" y1="100%" x2="100%" y2="0%">
      <stop offset="0%" stop-color="#5F6E81" />
      <stop offset="50%" stop-color="#C2C9DE" />
      <stop offset="100%" stop-color="#5F6E81" />
    </linearGradient>
    <style>
      .cls-1, .cls-2 {
        stroke-width: 0px;
      }

      .cls-2 {
        fill="url(#gradient)"
      }
    </style>
  </defs>
  <path class="cls-1" d="M29.36,8.23c-8.67,0-17.34,0-26.01,0-.35,0-.71-.02-1.06.01-.17.63-.51,1.2-.7,1.83-.28.89-.6,1.78-.76,2.7-.19.9-.24,1.82-.25,2.73,0,.93,0,1.85.09,2.77.08.62.23,1.23.37,1.84.16.85.52,1.64.79,2.45.17.4.34.8.5,1.21,9.11,0,18.22,0,27.33,0,.67-1.65,1.32-3.33,1.58-5.1.19-.91.15-1.85.2-2.77-.05-.72-.03-1.44-.13-2.16-.11-.58-.18-1.17-.34-1.75-.11-.69-.39-1.32-.59-1.99-.21-.6-.49-1.18-.73-1.77-.09,0-.18-.01-.27-.02h0Z"/>
  <path fill="url(#gradient)" d="M24.76,12.07c-.11,0-.04,0-.21-.01-.12,0-.23,0-.33.07-.47.5-.62,1.25-.45,1.91.15.49.47.92.9,1.2.5.35,1.07.61,1.68.63.2,0,.45-.03.56-.23.43-.71.47-1.71-.07-2.37-.5-.65-1.28-1.06-2.08-1.19Z"/>
  <path fill="url(#gradient)" d="M29.54,12.22c-.18-.65-.42-1.29-.63-1.93-.1-.28-.19-.56-.35-.8-8.3-.01-16.6,0-24.89,0h0c-.09,0-.18.02-.27.02-.35.87-.66,1.77-.93,2.67-.17.89-.37,1.79-.43,2.71-.02.8-.03,1.59,0,2.39.06.58.13,1.16.25,1.74.09.36.12.75.28,1.1.47-.46.76-1.07.99-1.67.44-1.02.71-2.11,1.19-3.12.07-.15.22-.3.4-.28.29.03.55.16.81.28.14.08.32.17.33.35.06.36-.21.66-.33.98-.17.44-.42.85-.53,1.32-.12.47-.32.95-.22,1.44.06.33.42.44.67.61.02.26.02.52,0,.78-.54-.09-1.1-.1-1.64-.05-.47.06-.96.15-1.37.4.14.47.32.92.52,1.37.25.07.52.03.78.03,8.07,0,16.13,0,24.2,0,.09,0,.22,0,.24-.11.3-.77.62-1.53.8-2.33.1-.38.21-.76.29-1.14.08-.36.09-.73.15-1.1.05-.36.11-.73.1-1.1,0-.88.04-1.77-.11-2.65-.06-.64-.21-1.25-.33-1.88ZM12.4,20.56c-.58.38-1.04.92-1.37,1.52-.3-.13-.61-.27-.86-.48-.05-.11-.02-.24-.02-.36.07-.77-.09-1.54-.31-2.27-.22-.7-.42-1.42-.73-2.1-.4-.93-.83-1.87-1.49-2.66-.13-.11-.3-.38-.49-.23-.24.23-.25.62-.52.84-.34.1-.64-.13-.93-.27-.2-.11-.49-.25-.43-.53.14-.56.44-1.06.58-1.62.01-.17.09-.46-.12-.53-.3-.15-.64-.15-.93-.29-.12-.06-.14-.22-.05-.32.15-.21.3-.44.51-.6l.17-.02h0c.11,0,.22,0,.34,0,.28.01.56.06.84.05.73.02,1.46,0,2.18.05.06.49.32.93.63,1.32.55.74.91,1.6,1.53,2.27.09.08.18.18.3.19.2-.07.37-.22.59-.26.26.02.41.25.57.42.16.2.41.42.33.7-.1.29-.38.48-.42.79-.06.5-.02,1.01.17,1.48.31.81.64,1.64.76,2.51-.27.15-.56.23-.82.4ZM20.32,21.1c-.57-.06-1.11-.29-1.69-.33-.89-.12-1.81-.13-2.68.14-.31.1-.58.29-.86.46-.23-.23-.47-.47-.66-.74.44-.43,1.04-.73,1.28-1.32.18-.5-.1-1.01-.28-1.47-.35-.95-.88-1.82-1.28-2.75-.08-.14-.14-.33-.3-.4-.22.03-.42.23-.65.14-.23-.15-.41-.37-.58-.59-.14-.16-.21-.4-.12-.61.13-.2.33-.35.47-.55.17-.25.34-.51.46-.8.06-.13-.02-.26-.11-.34-.38-.31-.86-.47-1.26-.74.16-.28.34-.54.5-.81h0c.31.02.61.15.92.18.45.04.9.04,1.35.02.26-.01.5-.13.75-.17.22.1.42.26.63.39-.03.33-.17.65-.12.99.06.5.16,1.01.39,1.46.34.68.75,1.33,1.03,2.04.37.9.81,1.78,1.1,2.71.14.44.17.95.52,1.29.33.29.7.51,1.06.75.15.1.31.22.4.39-.02.25-.15.47-.27.68ZM21.4,13.19c0,.88,0,1.76,0,2.65.02.16-.12.25-.21.35-.36.31-.7.63-1.01,1-.07.09-.17.16-.28.21.08-1.63.08-3.26-.01-4.89,0-.09-.06-.18-.16-.17-.39-.03-.78.02-1.17-.01-.02-.18-.02-.36,0-.54.33-.24.73-.35,1.1-.52.61-.25,1.19-.56,1.81-.76h0c-.03.9,0,1.81-.05,2.71ZM28.73,14.74c0,.31-.27.51-.47.7-.4.33-.75.72-1.18,1-.29.19-.59.37-.88.56-.2.12-.41.25-.64.27-.39-.11-.74-.3-1.11-.47-.66-.33-1.21-.84-1.7-1.38-.12-.14-.24-.29-.25-.48-.02-.35,0-.71.04-1.06.03-.38.02-.76.06-1.14,0-.22.21-.34.36-.46.63-.38,1.22-.81,1.84-1.2.26-.17.5-.36.79-.48.09-.03.03-.02.16-.04.05,0,.1,0,.15.02.17.05.32.15.47.24.82.55,1.71,1.08,2.33,1.87.16.67.06,1.37.03,2.05Z"/>
  <path fill="url(#gradient)" d="M31.63,12.37c-.3-1.72-1.04-3.31-1.68-4.92h0s-27.88,0-27.88,0c-.47,1.14-.99,2.27-1.32,3.46-.21.75-.46,1.5-.54,2.28-.05.49-.12.98-.2,1.47v3.05c.1.41.16.83.22,1.24.1.72.33,1.41.5,2.11.39,1.19.81,2.38,1.39,3.49h27.78c.43-.88.8-1.78,1.13-2.7.2-.72.48-1.42.6-2.16.19-.79.25-1.61.38-2.41v-2.91c-.15-.66-.21-1.33-.37-1.99ZM30.78,18.59c-.24,1.72-.88,3.35-1.53,4.94-8.83,0-17.67,0-26.5,0-.16-.39-.31-.78-.48-1.17-.26-.79-.61-1.55-.76-2.37-.13-.59-.28-1.18-.36-1.79-.09-.89-.09-1.79-.09-2.69.01-.88.05-1.78.24-2.65.16-.9.47-1.76.74-2.62.18-.61.51-1.16.68-1.77.34-.03.68-.01,1.03-.01,8.41,0,16.82,0,25.23,0h0c.09,0,.18,0,.27.01.24.57.5,1.13.71,1.72.19.64.46,1.26.57,1.93.16.55.23,1.13.33,1.69.09.69.08,1.4.12,2.09-.05.9,0,1.81-.2,2.69Z"/>
</svg>